<?xml version="1.0" encoding="utf-8"?>
<!-- Generator: Adobe Illustrator 27.0.0, SVG Export Plug-In . SVG Version: 6.00 Build 0)  -->
<svg version="1.1" id="Layer_1" xmlns="http://www.w3.org/2000/svg" xmlns:xlink="http://www.w3.org/1999/xlink" x="0px" y="0px"
	 viewBox="0 0 25.38 12.23" style="enable-background:new 0 0 25.38 12.23;" xml:space="preserve">
<path style="fill:#816641;stroke:#000000;stroke-width:0.5;stroke-miterlimit:10;" d="M15.25,11.9l-0.73,0.04
	c0.28-0.28-1.24-2.61-1.52-2.33c-0.88,0.88-0.93,1.02-0.93,2.27l-1.32,0.02H0.25c0-6.39,5.61-11.65,12.44-11.65
	c6.82,0,12.44,5.26,12.44,11.65H15.25z"/>
<line style="fill:none;stroke:#000000;stroke-width:0.5;stroke-miterlimit:10;" x1="12.69" y1="0.25" x2="12.69" y2="2.24"/>
<line style="fill:none;stroke:#000000;stroke-width:0.5;stroke-miterlimit:10;" x1="0.46" y1="10.21" x2="2.45" y2="10.21"/>
<line style="fill:none;stroke:#000000;stroke-width:0.5;stroke-miterlimit:10;" x1="23.12" y1="10.21" x2="25.1" y2="10.21"/>
<path style="fill:#A0896D;stroke:#000000;stroke-width:0.25;stroke-miterlimit:10;" d="M14.94,11.66v0.04
	c-0.02,1.22-1.02,2.21-2.25,2.21c-1.24,0-2.23-0.99-2.25-2.21v-0.04c0-1.25,1-2.25,2.25-2.25C13.93,9.41,14.94,10.41,14.94,11.66z"
	/>
</svg>
